<svg width="16" height="17" viewBox="0 0 16 17" fill="none" xmlns="http://www.w3.org/2000/svg">
<path d="M8 16.416C10.1217 16.416 12.1566 15.5732 13.6569 14.0729C15.1571 12.5726 16 10.5377 16 8.41602C16 6.29428 15.1571 4.25945 13.6569 2.75916C12.1566 1.25887 10.1217 0.416016 8 0.416016C5.87827 0.416016 3.84344 1.25887 2.34315 2.75916C0.842855 4.25945 0 6.29428 0 8.41602C0 10.5377 0.842855 12.5726 2.34315 14.0729C3.84344 15.5732 5.87827 16.416 8 16.416ZM11.5312 6.94727L7.53125 10.9473C7.2375 11.241 6.7625 11.241 6.47188 10.9473L4.47188 8.94727C4.17813 8.65352 4.17813 8.17852 4.47188 7.88789C4.76563 7.59727 5.24062 7.59414 5.53125 7.88789L7 9.35664L10.4688 5.88477C10.7625 5.59102 11.2375 5.59102 11.5281 5.88477C11.8187 6.17852 11.8219 6.65352 11.5281 6.94414L11.5312 6.94727Z" fill="#0EA5E9"/>
</svg>
